<svg width="84" height="84" viewBox="0 0 84 84" fill="none" xmlns="http://www.w3.org/2000/svg">
<g filter="url(#filter0_d_248_696)">
<rect x="20" y="16" width="44" height="44" rx="22" fill="white" shape-rendering="crispEdges"/>
<path d="M47.8691 38.6191L39.1191 47.3691C39.0378 47.4504 38.9413 47.5148 38.835 47.5588C38.7288 47.6028 38.615 47.6255 38.5 47.6255C38.385 47.6255 38.2712 47.6028 38.165 47.5588C38.0587 47.5148 37.9622 47.4504 37.8809 47.3691C37.7996 47.2878 37.7352 47.1913 37.6912 47.085C37.6472 46.9788 37.6245 46.865 37.6245 46.75C37.6245 46.635 37.6472 46.5212 37.6912 46.415C37.7352 46.3087 37.7996 46.2122 37.8809 46.1309L46.013 38L37.8809 29.8691C37.7167 29.7049 37.6245 29.4822 37.6245 29.25C37.6245 29.0178 37.7167 28.7951 37.8809 28.6309C38.0451 28.4668 38.2678 28.3745 38.5 28.3745C38.7322 28.3745 38.9549 28.4668 39.1191 28.6309L47.8691 37.3809C47.9504 37.4622 48.015 37.5587 48.059 37.6649C48.103 37.7711 48.1257 37.885 48.1257 38C48.1257 38.115 48.103 38.2288 48.059 38.3351C48.015 38.4413 47.9504 38.5378 47.8691 38.6191Z" fill="black"/>
</g>
<defs>
<filter id="filter0_d_248_696" x="0" y="0" width="84" height="84" filterUnits="userSpaceOnUse" color-interpolation-filters="sRGB">
<feFlood flood-opacity="0" result="BackgroundImageFix"/>
<feColorMatrix in="SourceAlpha" type="matrix" values="0 0 0 0 0 0 0 0 0 0 0 0 0 0 0 0 0 0 127 0" result="hardAlpha"/>
<feOffset dy="4"/>
<feGaussianBlur stdDeviation="10"/>
<feComposite in2="hardAlpha" operator="out"/>
<feColorMatrix type="matrix" values="0 0 0 0 0 0 0 0 0 0 0 0 0 0 0 0 0 0 0.1 0"/>
<feBlend mode="normal" in2="BackgroundImageFix" result="effect1_dropShadow_248_696"/>
<feBlend mode="normal" in="SourceGraphic" in2="effect1_dropShadow_248_696" result="shape"/>
</filter>
</defs>
</svg>
