<svg width="84" height="84" viewBox="0 0 84 84" fill="none" xmlns="http://www.w3.org/2000/svg">
<g filter="url(#filter0_d_248_692)">
<rect x="64" y="60" width="44" height="44" rx="22" transform="rotate(-180 64 60)" fill="white" shape-rendering="crispEdges"/>
<path d="M36.1309 37.3809L44.8809 28.6309C44.9622 28.5496 45.0588 28.4852 45.165 28.4412C45.2712 28.3972 45.385 28.3745 45.5 28.3745C45.615 28.3745 45.7288 28.3972 45.835 28.4412C45.9413 28.4852 46.0378 28.5496 46.1191 28.6309C46.2004 28.7122 46.2649 28.8087 46.3088 28.915C46.3528 29.0212 46.3755 29.135 46.3755 29.25C46.3755 29.365 46.3528 29.4788 46.3088 29.585C46.2649 29.6913 46.2004 29.7878 46.1191 29.8691L37.987 38L46.1191 46.1309C46.2833 46.2951 46.3755 46.5178 46.3755 46.75C46.3755 46.9822 46.2833 47.2049 46.1191 47.3691C45.9549 47.5332 45.7322 47.6255 45.5 47.6255C45.2678 47.6255 45.0451 47.5332 44.8809 47.3691L36.1309 38.6191C36.0496 38.5378 35.985 38.4413 35.941 38.3351C35.897 38.2289 35.8743 38.115 35.8743 38C35.8743 37.885 35.897 37.7712 35.941 37.6649C35.985 37.5587 36.0496 37.4622 36.1309 37.3809Z" fill="black"/>
</g>
<defs>
<filter id="filter0_d_248_692" x="0" y="0" width="84" height="84" filterUnits="userSpaceOnUse" color-interpolation-filters="sRGB">
<feFlood flood-opacity="0" result="BackgroundImageFix"/>
<feColorMatrix in="SourceAlpha" type="matrix" values="0 0 0 0 0 0 0 0 0 0 0 0 0 0 0 0 0 0 127 0" result="hardAlpha"/>
<feOffset dy="4"/>
<feGaussianBlur stdDeviation="10"/>
<feComposite in2="hardAlpha" operator="out"/>
<feColorMatrix type="matrix" values="0 0 0 0 0 0 0 0 0 0 0 0 0 0 0 0 0 0 0.1 0"/>
<feBlend mode="normal" in2="BackgroundImageFix" result="effect1_dropShadow_248_692"/>
<feBlend mode="normal" in="SourceGraphic" in2="effect1_dropShadow_248_692" result="shape"/>
</filter>
</defs>
</svg>
