<svg width="119" height="42" viewBox="0 0 119 42" fill="none" xmlns="http://www.w3.org/2000/svg">
<g clip-path="url(#clip0_155_892)">
<path d="M101.5 1.5H17.5C8.66344 1.5 1.5 8.66344 1.5 17.5C1.5 26.3366 8.66344 33.5 17.5 33.5H101.5C110.337 33.5 117.5 26.3366 117.5 17.5C117.5 8.66344 110.337 1.5 101.5 1.5Z" fill="#191E3A"/>
<path d="M101.5 1.5H17.5C8.66344 1.5 1.5 8.66344 1.5 17.5C1.5 26.3366 8.66344 33.5 17.5 33.5H101.5C110.337 33.5 117.5 26.3366 117.5 17.5C117.5 8.66344 110.337 1.5 101.5 1.5Z" stroke="white" stroke-width="3"/>
<path d="M58.5 42L51 32H66L58.5 42Z" fill="white"/>
</g>
<defs>
<clipPath id="clip0_155_892">
<rect width="119" height="42" fill="white"/>
</clipPath>
</defs>
</svg>
