<svg width="44" height="38" viewBox="0 0 44 38" fill="none" xmlns="http://www.w3.org/2000/svg">
<g clip-path="url(#clip0_102_295)">
<path d="M0 31.35L4.4058 23.75H11.7124C16.5066 23.75 20.5601 27.2748 21.1937 31.9945L22 38H12.4348L11.056 34.8047C10.1516 32.7089 8.07667 31.35 5.78085 31.35H0Z" fill="black"/>
<path d="M44 31.35L39.5942 23.75H32.2876C27.4934 23.75 23.4399 27.2748 22.8063 31.9945L22 38H31.5652L32.944 34.8047C33.8484 32.7089 35.9233 31.35 38.2192 31.35H44Z" fill="black"/>
<path d="M4.40625 23.75L18.1743 0H22.0005L21.6209 9.04785C21.2934 16.8536 15.0614 23.1416 7.2082 23.59L4.40625 23.75Z" fill="black"/>
<path d="M39.5942 23.75L25.8262 0H22L22.3795 9.04785C22.7071 16.8536 28.9391 23.1416 36.7922 23.59L39.5942 23.75Z" fill="black"/>
</g>
<defs>
<clipPath id="clip0_102_295">
<rect width="44" height="38" fill="white"/>
</clipPath>
</defs>
</svg>
